<svg xmlns="http://www.w3.org/2000/svg" width="19" height="19" viewBox="0 0 19 19">
  <metadata><?xpacket begin="﻿" id="W5M0MpCehiHzreSzNTczkc9d"?>
<x:xmpmeta xmlns:x="adobe:ns:meta/" x:xmptk="Adobe XMP Core 5.6-c140 79.160451, 2017/05/06-01:08:21        ">
   <rdf:RDF xmlns:rdf="http://www.w3.org/1999/02/22-rdf-syntax-ns#">
      <rdf:Description rdf:about=""/>
   </rdf:RDF>
</x:xmpmeta>
                                                                                                    
                                                                                                    
                                                                                                    
                                                                                                    
                                                                                                    
                                                                                                    
                                                                                                    
                                                                                                    
                                                                                                    
                                                                                                    
                                                                                                    
                                                                                                    
                                                                                                    
                                                                                                    
                                                                                                    
                                                                                                    
                                                                                                    
                                                                                                    
                                                                                                    
                                                                                                    
                           
<?xpacket end="w"?></metadata>
<defs>
    <style>
      .cls-1 {
        fill: #b4bcc3;
        fill-rule: evenodd;
      }
    </style>
  </defs>
  <path id="phone" class="cls-1" d="M866.993,432.009a0.684,0.684,0,0,0-.041-0.284,2.373,2.373,0,0,0-1.024-.716c-0.769-.432-1.551-0.851-2.306-1.3a2.768,2.768,0,0,0-1.2-.621c-0.822,0-2.022,2.445-2.75,2.445a2.9,2.9,0,0,1-1.16-.527A13.435,13.435,0,0,1,853,425.484a2.9,2.9,0,0,1-.526-1.162c0-.73,2.441-1.932,2.441-2.756a2.775,2.775,0,0,0-.621-1.2c-0.445-.757-0.862-1.54-1.294-2.31a2.388,2.388,0,0,0-.714-1.027,0.684,0.684,0,0,0-.284-0.041,5.981,5.981,0,0,0-1.874.419,3.555,3.555,0,0,0-1.429,1.648,5.176,5.176,0,0,0-.687,2.513,10.43,10.43,0,0,0,.93,3.54,12.564,12.564,0,0,0,1.119,2.364,22.777,22.777,0,0,0,6.472,6.484,12.628,12.628,0,0,0,2.359,1.122,10.39,10.39,0,0,0,3.532.932,5.146,5.146,0,0,0,2.508-.689,3.554,3.554,0,0,0,1.645-1.432A6.032,6.032,0,0,0,866.993,432.009Z" transform="translate(-848 -417)"/>
</svg>
