<svg xmlns="http://www.w3.org/2000/svg" width="29" height="29" viewBox="0 0 29 29">
  <metadata><?xpacket begin="﻿" id="W5M0MpCehiHzreSzNTczkc9d"?>
<x:xmpmeta xmlns:x="adobe:ns:meta/" x:xmptk="Adobe XMP Core 5.6-c140 79.160451, 2017/05/06-01:08:21        ">
   <rdf:RDF xmlns:rdf="http://www.w3.org/1999/02/22-rdf-syntax-ns#">
      <rdf:Description rdf:about=""/>
   </rdf:RDF>
</x:xmpmeta>
                                                                                                    
                                                                                                    
                                                                                                    
                                                                                                    
                                                                                                    
                                                                                                    
                                                                                                    
                                                                                                    
                                                                                                    
                                                                                                    
                                                                                                    
                                                                                                    
                                                                                                    
                                                                                                    
                                                                                                    
                                                                                                    
                                                                                                    
                                                                                                    
                                                                                                    
                                                                                                    
                           
<?xpacket end="w"?></metadata>
<defs>
    <style>
      .cls-1 {
        fill: #fff;
        fill-rule: evenodd;
      }
    </style>
  </defs>
  <path id="Rectangle_1_copy_2" data-name="Rectangle 1 copy 2" class="cls-1" d="M2182.38,413.825a5.256,5.256,0,0,1-2.46,2.1,7.872,7.872,0,0,1-3.76,1.012,15.72,15.72,0,0,1-5.29-1.369,18.831,18.831,0,0,1-3.54-1.648,26.619,26.619,0,0,1-2.69-1.913l3.69-3.625c0.62,0.423,1.27.83,1.97,1.212a4.392,4.392,0,0,0,1.74.774c1.09,0,2.89-3.592,4.12-3.592a4.189,4.189,0,0,1,1.8.913c1.13,0.655,2.3,1.27,3.45,1.905a3.537,3.537,0,0,1,1.54,1.052,1.007,1.007,0,0,1,.06.417A8.787,8.787,0,0,1,2182.38,413.825ZM2154,416.471l22.68-22.3,1.55,1.52-22.68,22.3Zm7.25-16.7a4.272,4.272,0,0,0,.79,1.707,22.41,22.41,0,0,0,1.57,2.422l-3.64,3.579a25.922,25.922,0,0,1-2.33-3.084,17.943,17.943,0,0,1-1.68-3.473,14.987,14.987,0,0,1-1.39-5.2,7.448,7.448,0,0,1,1.03-3.692,5.228,5.228,0,0,1,2.14-2.421,9.07,9.07,0,0,1,2.8-.615,1.061,1.061,0,0,1,.43.059,3.528,3.528,0,0,1,1.07,1.509c0.65,1.131,1.27,2.282,1.94,3.393a4.09,4.09,0,0,1,.93,1.767C2164.91,396.936,2161.25,398.7,2161.25,399.774Z" transform="translate(-2154 -389)"/>
</svg>
