<svg xmlns="http://www.w3.org/2000/svg" width="22" height="22" viewBox="0 0 22 22">
  <metadata><?xpacket begin="﻿" id="W5M0MpCehiHzreSzNTczkc9d"?>
<x:xmpmeta xmlns:x="adobe:ns:meta/" x:xmptk="Adobe XMP Core 5.6-c140 79.160451, 2017/05/06-01:08:21        ">
   <rdf:RDF xmlns:rdf="http://www.w3.org/1999/02/22-rdf-syntax-ns#">
      <rdf:Description rdf:about=""/>
   </rdf:RDF>
</x:xmpmeta>
                                                                                                    
                                                                                                    
                                                                                                    
                                                                                                    
                                                                                                    
                                                                                                    
                                                                                                    
                                                                                                    
                                                                                                    
                                                                                                    
                                                                                                    
                                                                                                    
                                                                                                    
                                                                                                    
                                                                                                    
                                                                                                    
                                                                                                    
                                                                                                    
                                                                                                    
                                                                                                    
                           
<?xpacket end="w"?></metadata>
<defs>
    <style>
      .cls-1 {
        fill: #8a8a8a;
        fill-rule: evenodd;
      }
    </style>
  </defs>
  <path id="dashboard" class="cls-1" d="M217,972a11,11,0,1,0,11,11A11,11,0,0,0,217,972Zm0,20.483A9.483,9.483,0,1,1,226.483,983,9.483,9.483,0,0,1,217,992.483ZM215.625,977.5A1.375,1.375,0,1,0,217,976.125,1.376,1.376,0,0,0,215.625,977.5Zm4.125,1.375a1.375,1.375,0,1,0,1.375-1.375A1.375,1.375,0,0,0,219.75,978.875Zm-8.25,0a1.375,1.375,0,1,0,1.375-1.375A1.376,1.376,0,0,0,211.5,978.875Zm4.125,8.25V988.5h2.75v-1.375L217,980.25Z" transform="translate(-206 -972)"/>
</svg>
