<svg xmlns="http://www.w3.org/2000/svg" width="27" height="27" viewBox="0 0 27 27">
  <metadata><?xpacket begin="﻿" id="W5M0MpCehiHzreSzNTczkc9d"?>
<x:xmpmeta xmlns:x="adobe:ns:meta/" x:xmptk="Adobe XMP Core 5.6-c140 79.160451, 2017/05/06-01:08:21        ">
   <rdf:RDF xmlns:rdf="http://www.w3.org/1999/02/22-rdf-syntax-ns#">
      <rdf:Description rdf:about=""/>
   </rdf:RDF>
</x:xmpmeta>
                                                                                                    
                                                                                                    
                                                                                                    
                                                                                                    
                                                                                                    
                                                                                                    
                                                                                                    
                                                                                                    
                                                                                                    
                                                                                                    
                                                                                                    
                                                                                                    
                                                                                                    
                                                                                                    
                                                                                                    
                                                                                                    
                                                                                                    
                                                                                                    
                                                                                                    
                                                                                                    
                           
<?xpacket end="w"?></metadata>
<defs>
    <style>
      .cls-1 {
        fill: #fff;
        fill-rule: evenodd;
      }
    </style>
  </defs>
  <path id="play_copy" data-name="play copy" class="cls-1" d="M2178.41,414.984a5.006,5.006,0,0,1-2.34,2.032,7.328,7.328,0,0,1-3.57.978,14.779,14.779,0,0,1-5.02-1.323,18.122,18.122,0,0,1-3.36-1.592,32.462,32.462,0,0,1-9.21-9.2,17.89,17.89,0,0,1-1.59-3.355A14.865,14.865,0,0,1,2152,397.5a7.362,7.362,0,0,1,.97-3.567,5.073,5.073,0,0,1,2.04-2.339,8.5,8.5,0,0,1,2.66-.594,1.022,1.022,0,0,1,.41.057,3.39,3.39,0,0,1,1.01,1.458c0.62,1.093,1.21,2.205,1.85,3.278a4.014,4.014,0,0,1,.88,1.707c0,1.169-3.47,2.876-3.47,3.911a4.22,4.22,0,0,0,.74,1.649,19.121,19.121,0,0,0,7.85,7.842,4.117,4.117,0,0,0,1.65.748c1.04,0,2.74-3.471,3.91-3.471a3.93,3.93,0,0,1,1.71.882c1.08,0.633,2.19,1.227,3.28,1.841a3.326,3.326,0,0,1,1.46,1.016,0.939,0.939,0,0,1,.06.4A8.475,8.475,0,0,1,2178.41,414.984Zm-6.88-19.471,6.08,3.449-6.08,3.448v-6.9Zm-4.3-2.435,2.15,1.217v9.333l-2.15,1.217V393.078Z" transform="translate(-2152 -391)"/>
</svg>
