<svg xmlns="http://www.w3.org/2000/svg" width="34" height="34" viewBox="0 0 34 34">
  <metadata><?xpacket begin="﻿" id="W5M0MpCehiHzreSzNTczkc9d"?>
<x:xmpmeta xmlns:x="adobe:ns:meta/" x:xmptk="Adobe XMP Core 5.6-c140 79.160451, 2017/05/06-01:08:21        ">
   <rdf:RDF xmlns:rdf="http://www.w3.org/1999/02/22-rdf-syntax-ns#">
      <rdf:Description rdf:about=""/>
   </rdf:RDF>
</x:xmpmeta>
                                                                                                    
                                                                                                    
                                                                                                    
                                                                                                    
                                                                                                    
                                                                                                    
                                                                                                    
                                                                                                    
                                                                                                    
                                                                                                    
                                                                                                    
                                                                                                    
                                                                                                    
                                                                                                    
                                                                                                    
                                                                                                    
                                                                                                    
                                                                                                    
                                                                                                    
                                                                                                    
                           
<?xpacket end="w"?></metadata>
<defs>
    <style>
      .cls-1 {
        fill: #bbe4fe;
        fill-rule: evenodd;
      }
    </style>
  </defs>
  <path id="gear_copy" data-name="gear copy" class="cls-1" d="M2393.26,241.431l-2.39-.405a12.83,12.83,0,0,0-.95-2.315l1.4-1.968a2.08,2.08,0,0,0-.23-2.706l-2.11-2.116a2.1,2.1,0,0,0-1.49-.618,2.044,2.044,0,0,0-1.21.39l-1.98,1.407a13.17,13.17,0,0,0-2.4-.988l-0.39-2.358a2.1,2.1,0,0,0-2.08-1.754h-2.99a2.094,2.094,0,0,0-2.07,1.754l-0.41,2.415a13.07,13.07,0,0,0-2.31.973l-1.96-1.406a2.089,2.089,0,0,0-2.7.227l-2.13,2.117a2.1,2.1,0,0,0-.22,2.706l1.42,2a13.109,13.109,0,0,0-.95,2.322l-2.36.4a2.1,2.1,0,0,0-1.75,2.074v2.99a2.1,2.1,0,0,0,1.75,2.074l2.42,0.412a13.058,13.058,0,0,0,.97,2.308l-1.4,1.946a2.1,2.1,0,0,0,.23,2.706l2.12,2.117a2.062,2.062,0,0,0,1.48.618,2.09,2.09,0,0,0,1.22-.391l1.99-1.42a13.378,13.378,0,0,0,2.25.923l0.39,2.387A2.1,2.1,0,0,0,2376.5,262h3a2.094,2.094,0,0,0,2.07-1.754l0.4-2.387a13.25,13.25,0,0,0,2.32-.959l1.97,1.407a2.074,2.074,0,0,0,1.22.39h0a2.062,2.062,0,0,0,1.48-.618l2.12-2.116a2.116,2.116,0,0,0,.23-2.706l-1.41-1.975a13.337,13.337,0,0,0,.96-2.315l2.39-.4A2.1,2.1,0,0,0,2395,246.5v-2.99A2.072,2.072,0,0,0,2393.26,241.431Zm-0.16,5.064a0.191,0.191,0,0,1-.16.185l-2.98.5a0.95,0.95,0,0,0-.77.7,11.18,11.18,0,0,1-1.24,2.976,0.965,0.965,0,0,0,.05,1.044l1.75,2.472a0.2,0.2,0,0,1-.02.241l-2.12,2.117a0.178,0.178,0,0,1-.13.057,0.2,0.2,0,0,1-.11-0.036L2384.91,255a0.97,0.97,0,0,0-1.05-.043,11.387,11.387,0,0,1-2.97,1.236,0.954,0.954,0,0,0-.71.767l-0.5,2.983a0.177,0.177,0,0,1-.18.156h-2.99a0.18,0.18,0,0,1-.19-0.156l-0.5-2.983a0.948,0.948,0,0,0-.7-0.767,11.657,11.657,0,0,1-2.91-1.193,0.976,0.976,0,0,0-.48-0.128,0.933,0.933,0,0,0-.56.177l-2.48,1.769a0.265,0.265,0,0,1-.11.036,0.2,0.2,0,0,1-.14-0.057l-2.11-2.117a0.184,0.184,0,0,1-.02-0.241l1.74-2.451a0.976,0.976,0,0,0,.05-1.051,11.067,11.067,0,0,1-1.25-2.969,0.977,0.977,0,0,0-.77-0.7l-3.01-.511a0.181,0.181,0,0,1-.15-0.185v-2.99a0.181,0.181,0,0,1,.15-0.185l2.97-.5a0.961,0.961,0,0,0,.77-0.71,11.482,11.482,0,0,1,1.21-2.983,0.915,0.915,0,0,0-.05-1.037l-1.76-2.486a0.186,0.186,0,0,1,.02-0.242l2.11-2.116a0.184,0.184,0,0,1,.14-0.057,0.19,0.19,0,0,1,.11.036l2.45,1.747a0.97,0.97,0,0,0,1.05.042,11.145,11.145,0,0,1,2.97-1.25,0.965,0.965,0,0,0,.7-0.767l0.51-3a0.187,0.187,0,0,1,.19-0.156h2.99a0.177,0.177,0,0,1,.18.156l0.5,2.962a0.955,0.955,0,0,0,.71.774,11.5,11.5,0,0,1,3.04,1.25,0.97,0.97,0,0,0,1.05-.043l2.45-1.761a0.19,0.19,0,0,1,.11-0.036,0.194,0.194,0,0,1,.13.057l2.12,2.117a0.2,0.2,0,0,1,.02.241l-1.76,2.465a0.963,0.963,0,0,0-.04,1.044,11.18,11.18,0,0,1,1.24,2.976,0.944,0.944,0,0,0,.76.7l2.99,0.5a0.18,0.18,0,0,1,.15.185v2.99h0Zm-15.1-8.836a7.337,7.337,0,1,0,7.34,7.337A7.341,7.341,0,0,0,2378,237.659Zm0,12.757a5.42,5.42,0,1,1,5.42-5.42A5.424,5.424,0,0,1,2378,250.416Z" transform="translate(-2361 -228)"/>
</svg>
