<svg xmlns="http://www.w3.org/2000/svg" width="327.062" height="94" viewBox="0 0 327.062 94">
  <metadata><?xpacket begin="﻿" id="W5M0MpCehiHzreSzNTczkc9d"?>
<x:xmpmeta xmlns:x="adobe:ns:meta/" x:xmptk="Adobe XMP Core 5.6-c140 79.160451, 2017/05/06-01:08:21        ">
   <rdf:RDF xmlns:rdf="http://www.w3.org/1999/02/22-rdf-syntax-ns#">
      <rdf:Description rdf:about=""/>
   </rdf:RDF>
</x:xmpmeta>
                                                                                                    
                                                                                                    
                                                                                                    
                                                                                                    
                                                                                                    
                                                                                                    
                                                                                                    
                                                                                                    
                                                                                                    
                                                                                                    
                                                                                                    
                                                                                                    
                                                                                                    
                                                                                                    
                                                                                                    
                                                                                                    
                                                                                                    
                                                                                                    
                                                                                                    
                                                                                                    
                           
<?xpacket end="w"?></metadata>
<defs>
    <style>
      .cls-1 {
        fill: #fff;
        fill-rule: evenodd;
      }
    </style>
  </defs>
  <path id="logo" class="cls-1" d="M560.074,286.716v0.68h-5.2V275.157h5.2v0.68h-4.437v4.845H559v0.68h-3.366v5.354h4.437ZM543.191,212.51v15.658H538.08V204.159h5.255l11.123,15.082V204.159h5.111v24.009h-4.931Zm-0.372,65.384v0.629a2.082,2.082,0,0,1-1.5,2.193,2.407,2.407,0,0,1,1.955,2.651v0.867a2.838,2.838,0,0,1-3.145,3.162h-2.719V275.157h2.549C541.714,275.157,542.819,275.99,542.819,277.894Zm-4.64,8.822h1.954a2.191,2.191,0,0,0,2.38-2.465v-0.9a2.089,2.089,0,0,0-2.38-2.243h-1.954v5.609Zm0-6.289h1.784a1.8,1.8,0,0,0,2.091-1.955v-0.51a1.886,1.886,0,0,0-2.091-2.125h-1.784v4.59Zm-6.325,7.139c-2.022,0-3.161-1.037-3.161-2.822v-6.935c0-1.785,1.139-2.822,3.161-2.822,2.04,0,3.162,1.037,3.162,2.822v6.935C535.016,286.529,533.894,287.566,531.854,287.566Zm2.4-9.434c0-1.768-.748-2.465-2.4-2.465s-2.4.7-2.4,2.465v6.289c0,1.768.748,2.465,2.4,2.465s2.4-.7,2.4-2.465v-6.289ZM520.114,228.6c-7.235,0-12.526-5.183-12.526-12.419s5.291-12.418,12.526-12.418c7.272,0,12.563,5.183,12.563,12.418S527.386,228.6,520.114,228.6Zm0-20.3c-4.427,0-7.271,3.384-7.271,7.883,0,4.464,2.844,7.883,7.271,7.883s7.308-3.419,7.308-7.883C527.422,211.682,524.542,208.3,520.114,208.3Zm-20.2,69.426-0.408-1.071,0.068,0.9V287.4h-0.748V275.157h0.595l4.658,9.6,0.425,1.156-0.051-1.037v-9.723H505.2V287.4H504.6Zm-2.836-73.565h5.112v24.009h-5.112V204.159Zm-3.811,83.407c-2.023,0-3.162-1.037-3.162-2.822v-6.935c0-1.785,1.139-2.822,3.162-2.822,2.04,0,3.162,1.037,3.162,2.822v6.935C496.427,286.529,495.305,287.566,493.265,287.566Zm2.4-9.434c0-1.768-.748-2.465-2.4-2.465s-2.4.7-2.4,2.465v6.289c0,1.768.748,2.465,2.4,2.465s2.4-.7,2.4-2.465v-6.289ZM491.818,220.9c0,4.391-3.131,7.7-9.61,7.7-4.608,0-7.919-1.548-10.151-3.816l2.772-3.887a10.523,10.523,0,0,0,7.631,3.239c2.807,0,4.175-1.295,4.175-2.663,0-4.248-13.822-1.332-13.822-10.367,0-4,3.455-7.307,9.107-7.307a13.356,13.356,0,0,1,9.359,3.348l-2.844,3.743a10.313,10.313,0,0,0-6.983-2.628c-2.2,0-3.42.972-3.42,2.412C478.032,214.49,491.818,211.934,491.818,220.9Zm-20.959,66.5-2.652-5.048h-1.649V287.4h-0.765V275.157h2.074c2.38,0,3.3,1.241,3.3,3.332v0.7c0,1.632-.612,2.737-2.159,3.06l2.737,5.15h-0.884ZM470.4,279.2v-0.68c0-1.87-.782-2.686-2.465-2.686h-1.377v5.831h1.309C469.618,281.668,470.4,280.971,470.4,279.2Zm-8.1-51.035-4.715-8.531h-3.743v8.531h-5.112V204.159H459.96c5,0,8.063,3.276,8.063,7.739a6.89,6.89,0,0,1-5.256,7.127l5.4,9.143H462.3Zm0.5-16.27c0-2.016-1.548-3.24-3.6-3.24h-5.363v6.48H459.2C461.255,215.138,462.8,213.914,462.8,211.9ZM443,275.157h5.2v0.68h-4.436v4.845h3.365v0.68h-3.365v5.354H448.2v0.68H443V275.157Zm-17.056-71h16.99v4.5H431.053v5.076h11.626v4.5H431.053v5.435h11.878v4.5h-16.99V204.159ZM425.866,254.9c0,4.391-3.131,7.7-9.611,7.7-4.607,0-7.919-1.548-10.15-3.816l2.771-3.887a10.527,10.527,0,0,0,7.631,3.24c2.808,0,4.176-1.3,4.176-2.664,0-4.248-13.823-1.332-13.823-10.367,0-4,3.456-7.307,9.107-7.307a13.354,13.354,0,0,1,9.359,3.348l-2.843,3.743a10.314,10.314,0,0,0-6.984-2.628c-2.2,0-3.419.972-3.419,2.412C412.08,248.49,425.866,245.934,425.866,254.9Zm-19.617-26.729-9.287-24.009h5.831l6.659,18.466,6.624-18.466h5.831l-9.251,24.009h-6.407Zm-8.93,17.262a6.8,6.8,0,0,0-5.688-3.132c-4.355,0-7.523,3.348-7.523,7.883s3.168,7.883,7.523,7.883a8.1,8.1,0,0,0,5.112-1.835v-2.88h-6.335v-4.463h11.446V258.1a13.326,13.326,0,0,1-10.223,4.536c-7.019,0-12.778-4.9-12.778-12.455,0-7.595,5.759-12.418,12.778-12.418a11.227,11.227,0,0,1,9.935,5.363Zm-20.734-32.92v15.658h-5.111V204.159h5.256l11.122,15.082V204.159h5.111v24.009h-4.931Zm-3.134,25.649v24.009h-4.932L357.073,246.51v15.658h-5.112V238.159h5.256l11.122,15.082V238.159h5.112ZM353.509,228.6c-7.235,0-12.527-5.183-12.527-12.419s5.292-12.418,12.527-12.418c7.271,0,12.562,5.183,12.562,12.418S360.78,228.6,353.509,228.6Zm0-20.3c-4.428,0-7.271,3.384-7.271,7.883,0,4.464,2.843,7.883,7.271,7.883s7.307-3.419,7.307-7.883C360.816,211.682,357.936,208.3,353.509,208.3Zm-8.1,53.87H340.3V238.159h5.111v24.009Zm-10.48,25.4c-2.023,0-3.162-1.037-3.162-2.822v-6.935c0-1.785,1.139-2.822,3.162-2.822,2.04,0,3.162,1.037,3.162,2.822v6.935C338.091,286.529,336.969,287.566,334.929,287.566Zm2.4-9.434c0-1.768-.748-2.465-2.4-2.465s-2.4.7-2.4,2.465v6.289c0,1.768.748,2.465,2.4,2.465s2.4-.7,2.4-2.465v-6.289Zm-10.1-54.068a6.436,6.436,0,0,0,5.651-3.491l4.392,2.124a11.059,11.059,0,0,1-10.043,5.9c-7.2,0-12.779-5.039-12.779-12.419s5.58-12.418,12.779-12.418a10.992,10.992,0,0,1,10.043,5.867l-4.392,2.16a6.506,6.506,0,0,0-5.651-3.492c-4.356,0-7.523,3.348-7.523,7.883S322.873,224.064,327.229,224.064Zm-6.515,24.822,8.5-10.727h6.3l-9.539,11.267,10.187,12.742h-6.3l-7.272-9.611-1.871,2.232v7.379H315.6V238.159h5.112v10.727Zm0.972,26.951h-4.437v4.845h3.366v0.68h-3.366v5.354h4.437v0.68h-5.2V275.157h5.2v0.68Zm4.794-.85c1.921,0,3.128.969,3.128,2.652v1.938h-0.714v-1.785c0-1.411-.969-2.125-2.414-2.125-1.649,0-2.4.714-2.4,2.125v6.969c0,1.53.748,2.125,2.4,2.125,1.445,0,2.414-.6,2.414-2.125v-1.785h0.714v1.938c0,1.683-1.224,2.652-3.145,2.652-1.938,0-3.145-.969-3.145-2.652v-7.275C323.318,275.956,324.542,274.987,326.48,274.987Zm18,6.953,3.213-6.783h0.781V287.4h-0.764V277.231l0.051-.646-0.153.391-2.856,5.933h-0.561l-2.822-5.933-0.17-.391,0.051,0.629V287.4h-0.765V275.157h0.782Zm10.506,0,3.212-6.783h0.782V287.4h-0.765V277.231l0.051-.646-0.153.391-2.855,5.933H354.7l-2.822-5.933-0.17-.391,0.051,0.629V287.4h-0.765V275.157h0.782Zm11.713-6.1h-4.437v4.845h3.366v0.68h-3.366v5.354H366.7v0.68h-5.2V275.157h5.2v0.68Zm7.122,2.652v0.7c0,1.632-.611,2.737-2.158,3.06l2.736,5.15h-0.883l-2.652-5.048h-1.649V287.4h-0.765V275.157h2.074C372.907,275.157,373.824,276.4,373.824,278.489Zm-4.606,3.179h1.309c1.751,0,2.533-.7,2.533-2.465v-0.68c0-1.87-.782-2.686-2.465-2.686h-1.377v5.831Zm9.809-6.681c1.92,0,3.127.969,3.127,2.652v1.938H381.44v-1.785c0-1.411-.969-2.125-2.413-2.125-1.649,0-2.4.714-2.4,2.125v6.969c0,1.53.748,2.125,2.4,2.125,1.444,0,2.413-.6,2.413-2.125v-1.785h0.714v1.938c0,1.683-1.224,2.652-3.144,2.652-1.938,0-3.145-.969-3.145-2.652v-7.275C375.865,275.956,377.089,274.987,379.027,274.987Zm10.607,0.85H385.2v4.845h3.365v0.68H385.2v5.354h4.436v0.68h-5.2V275.157h5.2v0.68Zm5.781,5.814a0.8,0.8,0,1,1,0,1.6A0.8,0.8,0,1,1,395.415,281.651Zm6.544-6.494h0.782v11.559h4.131v0.68h-5.015v-0.68h0.1V275.157Zm11.526,0.68h-4.437v4.845h3.366v0.68h-3.366v5.354h4.437v0.68h-5.2V275.157h5.2v0.68Zm4.777-.68,3.145,12.239h-0.765l-0.782-3.162h-4l-0.782,3.162h-0.765l3.145-12.239h0.8Zm1.428,8.4-1.819-7.343-1.836,7.343h3.655ZM429.022,279v4.555c0,2.516-1.053,3.842-3.739,3.842h-2.278V275.157h2.125C427.917,275.157,429.022,276.432,429.022,279Zm-5.252,7.717h1.513c1.9,0,2.991-.935,2.991-3.145v-4.589c0-2.21-.9-3.145-3.144-3.145h-1.36v10.879Zm13.787-11.729c1.92,0,3.161.969,3.161,2.652v1.938h-0.765v-1.785c0-1.411-.952-2.125-2.4-2.125-1.649,0-2.4.714-2.4,2.125v6.85c0,1.53.748,2.244,2.4,2.244a2.1,2.1,0,0,0,2.4-2.244v-2.311h-2.4v-0.68h3.161V287.4h-0.425l-0.2-1.088a2.757,2.757,0,0,1-2.55,1.258c-1.937,0-3.144-.969-3.144-2.652v-7.275C434.4,275.956,435.619,274.987,437.557,274.987Zm17.645,9.774,0.425,1.156-0.051-1.037v-9.723h0.748V287.4h-0.6l-4.691-9.672-0.408-1.071,0.068,0.9V287.4H449.95V275.157h0.6Zm8.84-8.924h-4.437v4.845h3.366v0.68h-3.366v5.354h4.437v0.68h-5.2V275.157h5.2v0.68Zm12.308-.68L479.5,287.4H478.73l-0.782-3.162h-4l-0.782,3.162h-0.765l3.145-12.239h0.8Zm1.428,8.4-1.819-7.343-1.836,7.343h3.655Zm1.326-8.4h6.426v0.68h-2.822V287.4h-0.765V275.837H479.1v-0.68Zm8.6,12.239h-0.765V275.157h0.765V287.4Zm24.038-5.745a0.8,0.8,0,1,1,0,1.6A0.8,0.8,0,1,1,511.744,281.651ZM522.3,281.94l3.213-6.783h0.782V287.4H525.53V277.231l0.051-.646-0.153.391-2.856,5.933h-0.561l-2.821-5.933-0.17-.391,0.051,0.629V287.4h-0.765V275.157h0.782Zm23.75,5.456h-0.765V275.157h0.765V287.4Zm2.5-12.239h0.782v11.559h4.131v0.68h-5.015v-0.68h0.1V275.157ZM234.385,237.984s0.2,4.774.3,6.094a3.64,3.64,0,0,0,.908,2.134c0.138,5.207.751,7.008,4.637,9.445a5.3,5.3,0,0,1-.645-2.214,6.027,6.027,0,0,0,4.275.285c-2.753,4.033-3.872,7.91-6.15,12.087-1.842,3.377-4.373.57-3.832-.813-2.525,5.236.675,9.9,5.646,7.922,0.717,18.485,21.807,22.758,34.884,13-12.321,5.367-22.936-7.253-17.22-16.851,5.183-8.7,18.63-13.422,23.975-24.692,2.822,9-5.8,16.62-14.518,17.674,1.969,1.654,4.574,2.037,7.057,2.132-10.52,15.986,16.386,24.814,20.51,5.337-1.44,3.427-9.734,3.3-9.117-1.985,0.2-1.726,3.125-7.008,4.436-10.156,2.825-6.786,5.479-16.111-1.2-21.942a9,9,0,0,0,1.5-14.651c-0.138,6.856-10.125,6.075-7.778-5.1-11.217-2.9-19.624-2.982-31-.484,9.985-4.157,19.219-3.6,31.412-1.113l5.308-14.076a8.279,8.279,0,0,0-5.656,2.963,13.068,13.068,0,0,1,.267,2.694c-0.173,7.7-16.963,4.99-16.9-.78,0.011-1.123.656-2.307,2.5-3.408a12.822,12.822,0,0,0-3.89-4.488,13.431,13.431,0,0,0-3.825,4.545,3.055,3.055,0,0,1,2.384,3.348c-0.3,3.056-3.2,5.29-6.545,6.212-4.279,1.179-9.282.214-10.466-3.919a4.088,4.088,0,0,1,.33-3.008,10.317,10.317,0,0,0-6.362-2.484s5.688,10.056,7.008,11.944c3.291,4.709-1.864,8.372-3.719,3.368-0.792,2.855.022,5.657,3.043,5.878-1.533,1-2.213,1.8-1.782,4.056a49.371,49.371,0,0,0-9.994,7.232,1.251,1.251,0,0,0-.575,1.676A13.343,13.343,0,0,0,234.385,237.984Zm55.513,36.14c-5.14,5.848-14.381.39-9.2-7.56C277.591,273.333,283.83,277.341,289.9,274.124Zm-6.158-29.166c1.442,6.926.881,10.693-4.237,18.236-3.883,5.722-4.8,12.365,2.009,14.309-8.085-.414-9.263-9.486-3.278-15.737-1.175.568-2.757,0.7-5.058-.109C281.483,260.072,284.157,252.967,283.74,244.958ZM257.3,261.891c-7.316,7.766-9.454,17.588-3.15,24.282-8.135-5.977-7.341-17.976.643-25.849,5.473-5.4,12.376-8.83,18.307-14.319C271.59,250,262.892,255.956,257.3,261.891Zm12.931-46.586c1.081,0.059,1.93.6,1.9,1.211s-0.935,1.056-2.016,1-1.931-.6-1.9-1.211S269.151,215.246,270.232,215.305Zm-14.117.2c0.933-.113,1.74.221,1.8,0.747s-0.641,1.045-1.574,1.159-1.74-.221-1.8-0.747S255.183,215.616,256.115,215.5Zm-6.618,9.883c-1.642.63-3.133-.016-1.766-1.414,2.2-2.252,5.741-2.618,8.5-2.716a5.573,5.573,0,0,0-1.972,2.769,14.921,14.921,0,0,1,11.7-1.548c-2.967.02-4.787,0.3-6.614,2.5,8.391-.287,12.033,7.784,9.106,15.1,3.2-3.213,2.708-9.834,0-13.2,3.232,0.762,6.983.161,6.855-3.321-0.046-1.259-2.018-3.884-6.21-2.092,2.1-3.233,7.693-2.866,8.782.845,1.012,3.453-.458,6.231-4.815,7.183,1.394,6.387.293,11.4-5.44,15.933-11.818,9.354-27.008,17.252-23.413,34.6-4.984-12.68-1.794-20.477,2.834-25.845,5.321-6.171,11-8.085,16.2-12.557,6.112-5.254,1.51-13.279-3.556-13.549,3.149,3.488,3.511,6.356-.443,9.288-1.082.8-6.274,3.544-7.656,4.326-0.981.555-1.8,0.163-2.84-.2a5.873,5.873,0,0,0-2.5-.4,5.748,5.748,0,0,1,3.123,3.081c1.726,5.2-5.315,7.252-9.049,7.252a4.063,4.063,0,0,1-2.4-1.4l-0.19,1.845c-1.131-2-1.063-4.626-.19-7.253,0.279-.84,1.067.018,2.468,0.828a39.151,39.151,0,0,0,5,2.226c3.707,1.444,3.463-3.308,1.457-3.308-0.76,0-3.923,0-5.5-.128a4.079,4.079,0,0,1-3.655-2.615,13.014,13.014,0,0,1-.413-2.462,1.178,1.178,0,0,1,1-1.383c0.325-.1.963-0.23,1.488-0.432,0.733-.282.676-0.577,0.321-1.228a3.175,3.175,0,0,0-1.528-1.422,9.779,9.779,0,0,0-3.5-.152C240.088,230,243.844,228.31,249.5,225.385Zm0.785,6c2.272,0.879,2.461-.444,4.477-0.35a9.418,9.418,0,0,0-5.114-3.192,5.7,5.7,0,0,0-1.081,2.719l-2.638,1.977C247.227,231.965,249.07,230.911,250.282,231.38ZM287.5,264.194c5.715-6.074,14.92-22.5,1.849-28.679C299.659,242.705,290.748,258.024,287.5,264.194Zm-23.376-.419c-14.509,10.847-1.494,26.767,11.558,19.665C262.689,285.2,254.115,273.874,264.128,263.775Z" transform="translate(-233 -197)"/>
</svg>
